HIERARCHY
ROOT root
{
	OFFSET	0	13.1	24.9
	CHANNELS 6  Xposition Yposition Zposition Xrotation Yrotation Zrotation
	JOINT spine_1
	{
		OFFSET	0	9.99999	0
		CHANNELS 3  Xrotation Yrotation Zrotation
		JOINT spine_2
		{
			OFFSET	0	112	-10
			CHANNELS 3  Xrotation Yrotation Zrotation
			JOINT spine_3
			{
				OFFSET	0	206.5	19.3
				CHANNELS 3  Xrotation Yrotation Zrotation
				JOINT spine_4
				{
					OFFSET	0	110.4	14.6
					CHANNELS 3  Xrotation Yrotation Zrotation
					JOINT neck_1
					{
						OFFSET	0	71.8	-50.3
						CHANNELS 3  Xrotation Yrotation Zrotation
						JOINT neck_2
						{
							OFFSET	0	86.2	-25.8
							CHANNELS 3  Xrotation Yrotation Zrotation
							JOINT head_ee
							{
								OFFSET	0	179.8	-8.7
								CHANNELS 3  Xrotation Yrotation Zrotation
								End Site
								{
									OFFSET	1	0	0
								}
							}
						}
					}
					JOINT left_clavicle
					{
						OFFSET	-43.2	22.4	-70.8
						CHANNELS 3  Xrotation Yrotation Zrotation
						JOINT left_shoulder
						{
							OFFSET	-93.9	-5.79999	48.7
							CHANNELS 3  Xrotation Yrotation Zrotation
							JOINT left_elbow
							{
								OFFSET	-291.4	-30.8	15.2
								CHANNELS 3  Xrotation Yrotation Zrotation
								JOINT left_lowarm_twist
								{
									OFFSET	-110.7	-3.89999	13.6
									CHANNELS 3  Xrotation Yrotation Zrotation
									JOINT left_hand
									{
										OFFSET	-110.7	-3.89999	13.6
										CHANNELS 3  Xrotation Yrotation Zrotation
										JOINT left_ee
										{
											OFFSET	-80.8	-5.10001	12.1
											CHANNELS 3  Xrotation Yrotation Zrotation
											End Site
											{
												OFFSET	1	0	0
											}
										}
									}
								}
							}
						}
					}
					JOINT right_clavicle
					{
						OFFSET	43.2	22.4	-70.8
						CHANNELS 3  Xrotation Yrotation Zrotation
						JOINT right_shoulder
						{
							OFFSET	93.9	-5.79999	48.7
							CHANNELS 3  Xrotation Yrotation Zrotation
							JOINT right_elbow
							{
								OFFSET	291.4	-30.8	15.2
								CHANNELS 3  Xrotation Yrotation Zrotation
								JOINT right_lowarm_twist
								{
									OFFSET	110.7	-3.89999	13.6
									CHANNELS 3  Xrotation Yrotation Zrotation
									JOINT right_hand
									{
										OFFSET	110.7	-3.89999	13.6
										CHANNELS 3  Xrotation Yrotation Zrotation
										JOINT right_ee
										{
											OFFSET	80.8	-5.10001	12.1
											CHANNELS 3  Xrotation Yrotation Zrotation
											End Site
											{
												OFFSET	1	0	0
											}
										}
									}
								}
							}
						}
					}
				}
			}
		}
	}
	JOINT left_hip
	{
		OFFSET	-82.8	-127.5	0.300001
		CHANNELS 3  Xrotation Yrotation Zrotation
		JOINT left_knee
		{
			OFFSET	-28.2	-396.7	2.2
			CHANNELS 3  Xrotation Yrotation Zrotation
			JOINT left_ankle
			{
				OFFSET	-11.7	-411.3	35.4
				CHANNELS 3  Xrotation Yrotation Zrotation
				JOINT left_toes
				{
					OFFSET	0	-60	-88.6
					CHANNELS 3  Xrotation Yrotation Zrotation
					JOINT left_foot_ee
					{
						OFFSET	-22.5	-16.5	-42.2
						CHANNELS 3  Xrotation Yrotation Zrotation
						End Site
						{
							OFFSET	1	0	0
						}
					}
				}
			}
		}
	}
	JOINT right_hip
	{
		OFFSET	82.8	-127.5	0.300001
		CHANNELS 3  Xrotation Yrotation Zrotation
		JOINT right_knee
		{
			OFFSET	28.2	-396.7	2.2
			CHANNELS 3  Xrotation Yrotation Zrotation
			JOINT right_ankle
			{
				OFFSET	11.7	-411.3	35.4
				CHANNELS 3  Xrotation Yrotation Zrotation
				JOINT right_toes
				{
					OFFSET	0	-60	-88.6
					CHANNELS 3  Xrotation Yrotation Zrotation
					JOINT right_foot_ee
					{
						OFFSET	22.5	-16.5	-42.2
						CHANNELS 3  Xrotation Yrotation Zrotation
						End Site
						{
							OFFSET	1	0	0
						}
					}
				}
			}
		}
	}
}
MOTION
Frames: 9
Frame Time: 0.02
1041.4 574.639 -1682.42 4.72424789441 38.2818759514 6.4278775125 -1.48997 -0.269187 -2.64731 -1.48608 -0.100247 -2.65906 -1.47806 0.528641 -2.60795 -1.48753 0.110282 -2.65867 6.5624 -0.671924 -0.685995 6.56351 -0.526523 -0.823287 -0.0 0.0 -0.0 10.9643 1.74761 21.5403 -24.9779 2.08091 64.6774 0.701639 -19.166 0.118461 -20.5292 -1.15624 2.34255 2.65101 14.0538 22.9998 -0.0 0.0 -0.0 4.43567 -3.14966 -8.68282 -0.518534 10.9565 -55.8189 3.06198 56.5922 -1.64871 42.1568 0.466173 5.24532 3.77487 14.3832 -19.5845 0.0 0.0 0.0 24.3506 -18.7138 -9.8006 -0.46233 0.0187609 0.068469 -19.326 22.3403 2.98883 13.5772 -0.0 -0.0 -0.0 0.0 -0.0 -21.5844 -20.3838 -4.12308 -13.1818 -0.314552 -1.99402 13.3979 21.3678 2.15032 21.2626 -0.0 -0.0 0.0 0.0 0.0 
1041.4 574.639 -1682.42 4.76517744281 38.8997972668 6.36226044025 -1.48997 -0.269187 -2.64731 -1.48608 -0.100247 -2.65906 -1.47806 0.528641 -2.60795 -1.48753 0.110282 -2.65867 6.5624 -0.671924 -0.685995 6.56351 -0.526523 -0.823287 -0.0 0.0 -0.0 10.9643 1.74761 21.5403 -24.9779 2.08091 64.6774 0.701639 -19.166 0.118461 -20.5292 -1.15624 2.34255 2.65101 14.0538 22.9998 -0.0 0.0 -0.0 4.43567 -3.14966 -8.68282 -0.518534 10.9565 -55.8189 3.06198 56.5922 -1.64871 42.1568 0.466173 5.24532 3.77487 14.3832 -19.5845 0.0 0.0 0.0 24.3506 -18.7138 -9.8006 -0.46233 0.0187609 0.068469 -19.326 22.3403 2.98883 13.5772 -0.0 -0.0 -0.0 0.0 -0.0 -21.5844 -20.3838 -4.12308 -13.1818 -0.314552 -1.99402 13.3979 21.3678 2.15032 21.2626 -0.0 -0.0 0.0 0.0 0.0 
1041.4 574.639 -1682.42 4.81985516679 39.6966205866 6.27593247143 -1.48997 -0.269187 -2.64731 -1.48608 -0.100247 -2.65906 -1.47806 0.528641 -2.60795 -1.48753 0.110282 -2.65867 6.5624 -0.671924 -0.685995 6.56351 -0.526523 -0.823287 -0.0 0.0 -0.0 10.9643 1.74761 21.5403 -24.9779 2.08091 64.6774 0.701639 -19.166 0.118461 -20.5292 -1.15624 2.34255 2.65101 14.0538 22.9998 -0.0 0.0 -0.0 4.43567 -3.14966 -8.68282 -0.518534 10.9565 -55.8189 3.06198 56.5922 -1.64871 42.1568 0.466173 5.24532 3.77487 14.3832 -19.5845 0.0 0.0 0.0 24.3506 -18.7138 -9.8006 -0.46233 0.0187609 0.068469 -19.326 22.3403 2.98883 13.5772 -0.0 -0.0 -0.0 0.0 -0.0 -21.5844 -20.3838 -4.12308 -13.1818 -0.314552 -1.99402 13.3979 21.3678 2.15032 21.2626 -0.0 -0.0 0.0 0.0 0.0 
1015.50482324 574.588 -1702.49805921 4.81799487132 39.2647132912 6.38537250438 -1.61491 -0.272811 -2.56503 -1.61125 -0.109094 -2.57718 -1.60305 0.506254 -2.52935 -1.61196 0.100576 -2.57753 5.8292 -0.95678 -1.10482 5.83204 -0.653825 -1.3161 -0.0 0.0 -0.0 11.0566 3.22296 21.6093 -24.1292 1.6149 63.7287 0.707691 -19.3191 0.120455 -20.8713 -1.18243 2.37769 2.63031 13.4989 22.6862 -0.0 0.0 -0.0 4.31552 -3.55115 -8.47059 -3.6381 11.1483 -56.0131 3.06377 56.6076 -1.65021 42.1355 0.464973 5.24288 4.0625 15.7644 -20.9245 0.0 0.0 0.0 24.554 -19.088 -9.67982 -3.54235 0.129555 0.528118 -18.3985 23.037 2.85274 13.5192 -0.0 -0.0 -0.0 0.0 -0.0 -22.1134 -20.7685 -3.75458 -11.7276 -0.302488 -1.77123 14.1456 20.333 2.24052 20.4396 -0.0 -0.0 0.0 0.0 0.0 
1015.23288995 574.588 -1702.14234754 4.87281127461 40.0448415236 6.29947696516 -1.61491 -0.272811 -2.56503 -1.61125 -0.109094 -2.57718 -1.60305 0.506254 -2.52935 -1.61196 0.100576 -2.57753 5.8292 -0.95678 -1.10482 5.83204 -0.653825 -1.3161 -0.0 0.0 -0.0 11.0566 3.22296 21.6093 -24.1292 1.6149 63.7287 0.707691 -19.3191 0.120455 -20.8713 -1.18243 2.37769 2.63031 13.4989 22.6862 -0.0 0.0 -0.0 4.31552 -3.55115 -8.47059 -3.6381 11.1483 -56.0131 3.06377 56.6076 -1.65021 42.1355 0.464973 5.24288 4.0625 15.7644 -20.9245 0.0 0.0 0.0 24.554 -19.088 -9.67982 -3.54235 0.129555 0.528118 -18.3985 23.037 2.85274 13.5192 -0.0 -0.0 -0.0 0.0 -0.0 -22.1134 -20.7685 -3.75458 -11.7276 -0.302488 -1.77123 14.1456 20.333 2.24052 20.4396 -0.0 -0.0 0.0 0.0 0.0 
1015.07108827 574.588 -1701.92582087 4.90695500041 40.515766412 6.24666647745 -1.61491 -0.272811 -2.56503 -1.61125 -0.109094 -2.57718 -1.60305 0.506254 -2.52935 -1.61196 0.100576 -2.57753 5.8292 -0.95678 -1.10482 5.83204 -0.653825 -1.3161 -0.0 0.0 -0.0 11.0566 3.22296 21.6093 -24.1292 1.6149 63.7287 0.707691 -19.3191 0.120455 -20.8713 -1.18243 2.37769 2.63031 13.4989 22.6862 -0.0 0.0 -0.0 4.31552 -3.55115 -8.47059 -3.6381 11.1483 -56.0131 3.06377 56.6076 -1.65021 42.1355 0.464973 5.24288 4.0625 15.7644 -20.9245 0.0 0.0 0.0 24.554 -19.088 -9.67982 -3.54235 0.129555 0.528118 -18.3985 23.037 2.85274 13.5192 -0.0 -0.0 -0.0 0.0 -0.0 -22.1134 -20.7685 -3.75458 -11.7276 -0.302488 -1.77123 14.1456 20.333 2.24052 20.4396 -0.0 -0.0 0.0 0.0 0.0 
990.802144102 576.491 -1723.48970907 4.88123064295 40.5683310354 6.51075119734 -1.32918 -0.374141 -2.55688 -1.32557 -0.210737 -2.57549 -1.31291 0.394087 -2.55389 -1.32201 -0.0140577 -2.58405 5.51998 -1.1577 -1.39382 5.52453 -0.750168 -1.65543 -0.0 0.0 -0.0 11.1997 4.24471 21.8066 -23.3658 1.2104 62.9618 0.723314 -19.7131 0.125675 -21.1146 -1.20118 2.40258 2.61421 13.0892 22.4472 -0.0 0.0 -0.0 4.21017 -4.09598 -8.29279 -6.24568 11.0525 -56.5171 3.00962 56.137 -1.60512 42.1022 0.463096 5.23905 4.244 16.6282 -21.7644 0.0 0.0 0.0 24.2965 -19.3673 -10.1143 -6.03988 0.201141 0.904693 -17.8833 23.53 2.77828 13.43 -0.0 -0.0 -0.0 0.0 -0.0 -21.9622 -20.8439 -3.03062 -11.4641 -0.299697 -1.7309 14.6877 19.5925 2.30496 19.888 -0.0 -0.0 0.0 0.0 0.0 
964.885995488 581.859 -1740.95405965 4.8336801265 39.803510291 6.68147196837 -1.1503 -0.39554 -2.67902 -1.14634 -0.224329 -2.69874 -1.13245 0.401112 -2.67819 -1.14246 -0.0267318 -2.70791 5.03691 -1.36001 -1.88841 5.04541 -0.678804 -2.22673 -0.0 0.0 -0.0 11.1036 5.48023 21.4873 -22.4416 0.812903 62.7302 0.763003 -20.705 0.139386 -21.2845 -1.21434 2.41992 2.56297 12.7091 21.9746 -0.0 0.0 -0.0 3.99144 -4.55046 -7.90277 -8.52104 10.9312 -56.9286 2.76284 53.8362 -1.40297 41.7652 0.444248 5.20029 4.26284 16.5153 -21.9591 0.0 0.0 0.0 23.7408 -19.4565 -9.86136 -9.07056 0.265856 1.36521 -16.5941 23.7799 2.5789 13.5873 -0.0 -0.0 -0.0 0.0 -0.0 -21.1258 -20.495 -1.30428 -12.9964 -0.313328 -1.9656 14.8653 19.1837 2.32248 19.6241 -0.0 -0.0 0.0 0.0 0.0 
938.464091952 584.128 -1758.28357613 4.79364605961 41.5246477453 6.6488979226 -0.761693 -0.584178 -2.74724 -0.757587 -0.408249 -2.77881 -0.734466 0.220828 -2.79993 -0.745336 -0.223961 -2.79968 5.31752 -2.53814 -2.58734 5.33401 -2.06876 -3.08772 -0.0 0.0 -0.0 10.2709 6.26393 19.7575 -20.6834 -1.74701 64.0657 0.942098 -25.0175 0.209013 -21.4542 -1.22753 2.4372 2.6062 12.4523 22.1901 -0.0 0.0 -0.0 3.43581 -4.83339 -6.88727 -10.6684 10.8204 -57.4865 2.55472 51.6764 -1.23726 41.0553 0.405287 5.11826 4.08262 14.0798 -21.9366 0.0 0.0 0.0 23.1477 -20.8362 -8.62538 -10.9806 0.294093 1.65692 -12.5811 25.5002 1.96526 13.7868 -0.0 -0.0 -0.0 0.0 -0.0 -19.8019 -16.7565 -1.01659 -17.1492 -0.318683 -2.60261 13.8871 13.9275 2.09174 18.6589 -0.0 -0.0 0.0 0.0 0.0 
